<svg width="29" height="29" viewBox="0 0 29 29" fill="none" xmlns="http://www.w3.org/2000/svg">
<path d="M28.7454 14.5231C28.7454 6.58442 22.3114 0.150391 14.3727 0.150391C6.43403 0.150391 0 6.58442 0 14.5231C0 22.4618 6.43403 28.8958 14.3727 28.8958C14.4569 28.8958 14.5411 28.8958 14.6253 28.8902V17.7064H11.5375V14.1076H14.6253V11.4577C14.6253 8.38662 16.5005 6.71355 19.2403 6.71355C20.5541 6.71355 21.6826 6.80899 22.0082 6.85391V10.0653H20.1218C18.634 10.0653 18.342 10.7727 18.342 11.8114V14.102H21.9071L21.4412 17.7008H18.342V28.34C24.3494 26.6164 28.7454 21.0863 28.7454 14.5231Z" fill="white"/>
</svg>
