<svg width="30" height="29" viewBox="0 0 30 29" fill="none" xmlns="http://www.w3.org/2000/svg">
<path d="M11.8964 14.5235C11.8964 16.0429 13.1281 17.2745 14.6474 17.2745C16.1668 17.2745 17.3984 16.0428 17.3984 14.5235C17.3984 13.0041 16.1668 11.7725 14.6474 11.7725C13.1281 11.7725 11.8964 13.0041 11.8964 14.5235Z" fill="white"/>
<path d="M8.2142 9.65544C8.34649 9.29695 8.55744 8.97267 8.83155 8.70644C9.09774 8.43229 9.42203 8.22133 9.78054 8.08909C10.0714 7.97619 10.5082 7.84172 11.3129 7.80512C12.1833 7.76543 12.4443 7.75684 14.6479 7.75684C16.8517 7.75684 17.1127 7.7652 17.9829 7.80489C18.7876 7.84172 19.2247 7.97613 19.5152 8.08909C19.8738 8.22128 20.1981 8.43225 20.4642 8.70644C20.7384 8.97268 20.9494 9.29695 21.0818 9.65544C21.1947 9.94626 21.3292 10.3833 21.3658 11.188C21.4055 12.0582 21.4141 12.3192 21.4141 14.523C21.4141 16.7266 21.4055 16.9876 21.3658 17.858C21.3292 18.6627 21.1947 19.0996 21.0818 19.3904C20.9495 19.7488 20.7385 20.0731 20.4645 20.3393C20.1983 20.6135 19.874 20.8245 19.5155 20.9567C19.2246 21.0698 18.7876 21.2043 17.9829 21.2409C17.1127 21.2806 16.852 21.289 14.6481 21.289C12.444 21.289 12.1831 21.2806 11.3131 21.2409C10.5084 21.2043 10.0713 21.0698 9.78054 20.9567C9.42459 20.8194 9.10133 20.6091 8.83157 20.3393C8.5618 20.0696 8.3515 19.7463 8.2142 19.3904C8.10129 19.0995 7.96683 18.6627 7.93 17.858C7.8903 16.9876 7.88194 16.7266 7.88194 14.523C7.88194 12.3192 7.8903 12.0582 7.93 11.188C7.9666 10.3833 8.10107 9.9462 8.2142 9.65544ZM14.6479 18.7608C16.9886 18.7608 18.886 16.8635 18.886 14.5228C18.886 12.1821 16.9886 10.2849 14.6479 10.2849C12.3074 10.2849 10.41 12.1821 10.41 14.5228C10.41 16.8635 12.3074 18.7608 14.6479 18.7608ZM10.2424 11.1077C10.7893 11.1077 11.2327 10.6642 11.2327 10.1173C11.2327 9.57043 10.7893 9.1269 10.2424 9.1269C9.69543 9.1269 9.252 9.57032 9.252 10.1173C9.25223 10.6642 9.69543 11.1077 10.2424 11.1077Z" fill="white"/>
<path d="M14.6507 0.150391C22.5873 0.150391 29.0234 6.5865 29.0234 14.5231C29.0234 22.4597 22.5873 28.8958 14.6507 28.8958C6.71414 28.8958 0.278032 22.4597 0.278032 14.5231C0.278032 6.5865 6.71414 0.150391 14.6507 0.150391ZM6.44746 17.9257C6.48732 18.8043 6.62706 19.4041 6.83103 19.9291C7.04306 20.4773 7.36729 20.9752 7.78294 21.3909C8.19859 21.8065 8.6965 22.1308 9.24475 22.3428C9.76957 22.5468 10.3696 22.6862 11.2479 22.7264C12.128 22.7665 12.4092 22.7762 14.6505 22.7762C16.8921 22.7762 17.173 22.7665 18.0534 22.7264C18.9317 22.6862 19.5317 22.5468 20.0566 22.3428C20.6073 22.1356 21.1062 21.8107 21.5184 21.3908C21.9382 20.9786 22.263 20.4797 22.4702 19.9291C22.6742 19.4043 22.8139 18.8043 22.8538 17.9259C22.8944 17.0456 22.9038 16.7644 22.9038 14.5231C22.9038 12.2817 22.8944 12.0006 22.854 11.1205C22.8141 10.2419 22.6746 9.64216 22.4707 9.1171C22.2634 8.56639 21.9385 8.06755 21.5185 7.65541C21.1063 7.23547 20.6075 6.91056 20.0567 6.70339C19.5317 6.49942 18.9319 6.35996 18.0533 6.31982C17.1733 6.27967 16.8921 6.27002 14.6507 6.27002C12.4094 6.27002 12.1282 6.27967 11.2482 6.31999C10.3696 6.35996 9.7698 6.49942 9.24475 6.70316C8.69397 6.91045 8.19504 7.23541 7.78277 7.65536C7.36296 8.06757 7.03816 8.56642 6.83103 9.1171C6.62684 9.64216 6.48738 10.2419 6.44723 11.1205C6.40709 12.0006 6.39766 12.2817 6.39766 14.5231C6.39766 16.7644 6.40709 17.0456 6.44746 17.9257Z" fill="white"/>
</svg>
