<svg width="30" height="29" viewBox="0 0 30 29" fill="none" xmlns="http://www.w3.org/2000/svg">
<path d="M15.1149 0.150391C7.18982 0.150391 0.742188 6.59802 0.742188 14.5231C0.742188 22.4476 7.18982 28.8958 15.1149 28.8958C23.0394 28.8958 29.4876 22.4476 29.4876 14.5231C29.4876 6.59802 23.0405 0.150391 15.1149 0.150391ZM21.5266 11.2336C21.533 11.376 21.5365 11.5196 21.5365 11.6631C21.5365 16.0347 18.2099 21.0738 12.1235 21.0738C10.2553 21.0738 8.51616 20.5278 7.05261 19.5888C7.31139 19.6195 7.57481 19.6351 7.8417 19.6351C9.39209 19.6351 10.818 19.106 11.9504 18.219C11.26 18.206 10.591 17.9775 10.0369 17.5655C9.48277 17.1535 9.0713 16.5786 8.86005 15.9212C9.35573 16.016 9.86644 15.997 10.3537 15.8657C9.60498 15.7143 8.93167 15.3086 8.44804 14.7174C7.96442 14.1261 7.70027 13.3857 7.70044 12.6219L7.70102 12.5802C8.16015 12.8354 8.67367 12.9771 9.19873 12.9935C8.74577 12.6913 8.37447 12.2819 8.11783 11.8017C7.86119 11.3214 7.72716 10.7852 7.72765 10.2407C7.72765 9.63397 7.89033 9.06545 8.17517 8.57683C9.00576 9.5989 10.042 10.4349 11.2166 11.0305C12.3912 11.6262 13.678 11.9681 14.9933 12.0342C14.9361 11.7869 14.9075 11.5338 14.9082 11.2799C14.9078 10.6163 15.107 9.96784 15.4799 9.4189C15.8529 8.86997 16.3823 8.44589 16.9994 8.20177C17.6165 7.95765 18.2927 7.90478 18.9403 8.05003C19.5878 8.19528 20.1767 8.53193 20.6304 9.01624C21.3717 8.87076 22.0825 8.59915 22.732 8.21325C22.4844 8.97984 21.9667 9.63038 21.2754 10.0439C21.9313 9.96675 22.5718 9.79129 23.1754 9.52339C22.7329 10.1877 22.1744 10.767 21.5266 11.2336Z" fill="white"/>
</svg>
