<svg width="29" height="29" viewBox="0 0 29 29" fill="none" xmlns="http://www.w3.org/2000/svg">
<path d="M12.4023 16.8422L16.3889 14.5293L12.4023 12.2051V16.8422Z" fill="white"/>
<path d="M14.3961 0.150391C11.5535 0.150391 8.77468 0.993335 6.4111 2.57263C4.04752 4.15192 2.20534 6.39663 1.1175 9.0229C0.0296649 11.6492 -0.254962 14.539 0.299611 17.3271C0.854185 20.1151 2.22305 22.6761 4.23311 24.6861C6.24317 26.6962 8.80414 28.0651 11.5922 28.6196C14.3802 29.1742 17.2701 28.8896 19.8963 27.8017C22.5226 26.7139 24.7673 24.8717 26.3466 22.5081C27.9259 20.1446 28.7688 17.3657 28.7688 14.5231C28.7688 10.7112 27.2546 7.05546 24.5592 4.36006C21.8638 1.66465 18.208 0.150391 14.3961 0.150391ZM21.9607 17.0667C21.961 17.4426 21.8871 17.8149 21.7435 18.1622C21.5998 18.5096 21.3891 18.8253 21.1233 19.0912C20.8576 19.357 20.5421 19.568 20.1948 19.7119C19.8476 19.8558 19.4753 19.9299 19.0994 19.9299H9.69287C9.31696 19.9299 8.94473 19.8558 8.59746 19.7119C8.25018 19.568 7.93467 19.357 7.66895 19.0912C7.40323 18.8253 7.19251 18.5096 7.04883 18.1622C6.90514 17.8149 6.83132 17.4426 6.83156 17.0667V11.9795C6.83132 11.6036 6.90514 11.2313 7.04883 10.8839C7.19251 10.5366 7.40323 10.2209 7.66895 9.95503C7.93467 9.68914 8.25018 9.4782 8.59746 9.33429C8.94473 9.19038 9.31696 9.11631 9.69287 9.11631H19.0994C19.4753 9.11631 19.8476 9.19038 20.1948 9.33429C20.5421 9.4782 20.8576 9.68914 21.1233 9.95503C21.3891 10.2209 21.5998 10.5366 21.7435 10.8839C21.8871 11.2313 21.961 11.6036 21.9607 11.9795V17.0667Z" fill="white"/>
</svg>
